<?xml version="1.0" ?><svg viewBox="0 0 28.87 28.87" xmlns="http://www.w3.org/2000/svg"><defs><style>.cls-1{fill:#189d0e;}.cls-2{fill:#fff;fill-rule:evenodd;}</style></defs><title/><g data-name="Layer 2" id="Layer_2"><g data-name="Layer 1" id="Layer_1-2"><rect class="cls-1" height="28.87" rx="6.48" ry="6.48" width="28.87"/><path class="cls-2" d="M7.09,21.82l.23-.87c.24-.89.49-1.77.72-2.66a.65.65,0,0,0,0-.43,7.32,7.32,0,1,1,3.16,3.08.73.73,0,0,0-.45,0C8.77,21.38,7.49,21.74,7.09,21.82ZM8.8,20.14c.73-.19,1.4-.36,2.07-.54a.6.6,0,0,1,.5.07,6,6,0,0,0,4.05.77,6.12,6.12,0,1,0-6.31-3.09,1.28,1.28,0,0,1,.14,1.16C9.07,19,9,19.55,8.8,20.14Z"/><path class="cls-2" d="M16.37,17.89c-1.43-.05-3.71-1.18-5.27-3.89a2.2,2.2,0,0,1,.34-2.81,1,1,0,0,1,.94-.14c.08,0,.16.13.2.22.21.47.41.95.59,1.43.1.26-.08.5-.45.92a.32.32,0,0,0,0,.42,5,5,0,0,0,2.54,2.18.3.3,0,0,0,.39-.1c.58-.71.64-.92,1-.78,1.48.71,1.59.74,1.6.9A1.61,1.61,0,0,1,16.37,17.89Z"/></g></g></svg>